<?xml version="1.0" standalone="no"?>
<!DOCTYPE svg PUBLIC "-//W3C//DTD SVG 20010904//EN"
 "http://www.w3.org/TR/2001/REC-SVG-20010904/DTD/svg10.dtd">
<svg version="1.0" xmlns="http://www.w3.org/2000/svg"
 width="300.000000pt" height="259.000000pt" viewBox="0 0 300.000000 259.000000"
 preserveAspectRatio="xMidYMid meet">
<metadata>
Created by potrace 1.10, written by Peter Selinger 2001-2011
</metadata>
<g transform="translate(0.000000,259.000000) scale(0.100000,-0.100000)"
fill="#000000" stroke="none">
<path d="M1875 1898 c-16 -4 -37 -14 -46 -21 -37 -29 -149 -224 -149 -259 0
-10 -4 -18 -10 -18 -5 0 -9 -3 -8 -7 0 -5 -23 -58 -52 -120 -51 -109 -53 -112
-74 -97 -12 8 -21 18 -21 22 0 4 -9 23 -21 42 -11 19 -36 61 -54 93 -31 52
-57 78 -44 42 4 -8 9 -15 13 -15 3 0 12 -15 20 -32 8 -18 26 -51 41 -73 15
-22 35 -61 46 -87 21 -53 50 -96 58 -87 3 3 13 34 22 70 9 35 22 71 29 79 7 8
21 35 31 60 9 25 23 52 29 60 7 8 16 26 20 40 10 37 82 180 110 220 55 79 77
86 134 43 68 -51 79 -76 41 -88 -11 -4 -18 -11 -14 -16 10 -17 44 22 44 49 0
16 -14 38 -39 62 -45 43 -64 50 -106 38z"/>
<path d="M1887 1818 c-19 -15 -41 -68 -27 -68 4 0 17 11 28 25 11 14 30 25 43
25 23 1 23 1 5 15 -24 18 -28 18 -49 3z"/>
<path d="M1278 1778 c-16 -5 -28 -13 -28 -17 0 -9 -59 -34 -116 -49 -58 -17
-148 -80 -178 -126 -25 -39 -34 -98 -18 -122 23 -35 74 -34 95 3 5 7 12 11 18
8 5 -4 9 -2 9 3 0 18 58 72 77 72 29 0 43 -74 25 -136 -8 -27 -18 -79 -22
-116 -5 -37 -13 -76 -19 -87 -6 -11 -11 -30 -11 -43 0 -13 -18 -61 -40 -106
-22 -44 -40 -88 -40 -97 0 -33 30 -75 53 -75 27 0 72 29 46 30 -8 0 -20 -5
-26 -11 -19 -19 -40 16 -38 60 2 30 9 46 28 61 13 11 27 32 30 47 26 129 52
246 63 285 14 47 16 75 11 161 -1 30 2 52 10 59 24 20 14 30 -24 24 -21 -4
-48 -7 -60 -7 -17 -1 -23 -7 -23 -25 0 -13 -8 -32 -18 -41 -36 -36 -95 -83
-103 -83 -32 0 -30 109 2 117 9 3 19 14 22 25 3 11 15 22 26 25 12 3 21 8 21
12 0 13 74 49 131 64 31 8 77 29 102 46 25 17 58 31 73 31 26 0 27 -1 21 -45
-10 -67 11 -57 28 13 2 8 -5 22 -16 33 -21 21 -66 24 -111 7z"/>
<path d="M1793 1652 c-61 -128 -94 -224 -99 -287 -2 -22 -6 -51 -9 -63 -3 -14
-2 -21 4 -18 5 3 12 30 16 59 4 28 13 64 21 80 8 15 21 41 30 57 8 17 12 30 8
30 -3 0 -2 6 3 13 5 6 18 35 28 62 10 28 25 55 33 61 9 7 12 16 7 24 -5 9 -4
11 3 6 7 -4 12 -3 12 2 0 5 10 14 23 20 16 8 18 11 6 11 -9 1 -19 8 -23 16
-10 28 -21 15 -63 -73z"/>
<path d="M1305 1683 c-21 -14 -64 -34 -94 -44 l-56 -17 41 -1 c42 -1 119 33
144 65 22 26 5 24 -35 -3z"/>
<path d="M1251 1552 c-15 -27 -14 -89 1 -98 7 -5 9 -2 5 8 -3 9 -1 35 4 58 11
48 6 62 -10 32z"/>
<path d="M1282 1448 c-7 -7 -12 -22 -12 -35 0 -13 -6 -32 -12 -43 -10 -15 -10
-23 -2 -28 7 -4 14 -16 17 -27 3 -12 5 -6 6 16 1 42 18 64 38 48 7 -7 13 -19
13 -28 0 -9 13 -30 28 -47 15 -17 38 -51 52 -74 14 -23 37 -57 52 -74 36 -43
49 -79 55 -146 9 -100 50 -141 101 -103 14 11 28 26 30 34 3 8 -8 2 -23 -13
-15 -16 -31 -28 -35 -28 -19 0 -40 53 -43 109 -2 39 -9 67 -20 79 -10 11 -15
26 -11 36 4 10 1 16 -8 16 -18 0 -58 41 -58 59 0 7 -11 26 -25 43 -14 16 -25
35 -25 42 0 7 -11 23 -25 36 -14 13 -25 27 -25 32 0 5 -13 31 -28 58 -22 38
-31 47 -40 38z"/>
<path d="M1657 1379 c-3 -8 -12 -39 -21 -70 -19 -65 -21 -93 -5 -65 14 23 41
137 34 144 -2 3 -6 -1 -8 -9z"/>
<path d="M1252 1258 c-7 -7 -12 -34 -12 -62 0 -56 5 -58 13 -6 3 19 9 45 13
58 7 25 4 28 -14 10z"/>
<path d="M1197 1175 c-3 -11 -8 -36 -11 -55 -5 -30 -3 -29 9 10 8 25 14 49 12
55 -2 5 -6 1 -10 -10z"/>
</g>
</svg>
